<?xml version="1.0" encoding="iso-8859-1"?>
<!-- Uploaded to: SVG Repo, www.svgrepo.com, Generator: SVG Repo Mixer Tools -->
<!DOCTYPE svg PUBLIC "-//W3C//DTD SVG 1.1//EN" "http://www.w3.org/Graphics/SVG/1.1/DTD/svg11.dtd">
<svg fill="#000000" version="1.1" id="Capa_1" xmlns="http://www.w3.org/2000/svg" xmlns:xlink="http://www.w3.org/1999/xlink" 
	 width="800px" height="800px" viewBox="0 0 190.731 190.731"
	 xml:space="preserve">
<g>
	<g>
		<g>
			<path d="M28.816,137.349c0.021,0.003,0.042,0.012,0.064,0.015C29.044,137.38,29.085,137.383,28.816,137.349z"/>
			<path d="M177.541,69.879c-6.265-23.853-23.317-43.254-45.658-53.146C114.558,9.062,90.616-1.12,73.281,10.989
				c0.014-0.36,0.019-0.72,0.04-1.081c0.661-0.837,0.9-1.994,0.217-2.953C68.009-0.811,45.792,0.699,37.385,0.42
				c-6.994-0.232-20.392-1.889-25.644,3.509c-1.052,0.332-1.738,1.622-1.521,2.83c-0.031-0.004-0.062-0.008-0.094-0.012
				c2.823,19.611-0.367,44.795-0.347,65.164c0.038,37.742,0.078,75.486,0.124,113.229c0.002,2.001,1.411,3.05,2.941,3.217
				c0.277,0.463,0.672,0.828,1.171,1.047c1.291,0.707,3.161,0.759,4.459,0.755c0.047,0,0.077-0.024,0.123-0.026
				c0.31,0.096,0.633,0.16,0.975,0.146c15.41-0.667,31.201-1.722,46.543,0.413c1.768,0.246,3.126-0.66,3.88-1.89
				c0.82-0.507,1.425-1.351,1.4-2.626c-0.596-31.272,2.399-62.428,3.066-93.673c0.49-22.951-1.696-45.684-1.54-68.579
				c8.314,23.202,10.104,48.018,14.615,72.188c5.287,28.328,12.278,57.225,21.059,84.669c0.371,1.161,1.201,1.76,2.119,1.989
				c0.334,1.606,1.71,2.947,3.729,2.288C164.202,168.844,190.864,120.617,177.541,69.879z M67.914,85.87
				c0.456,32.527-3.594,64.929-3.106,97.478c-15.079-1.751-31.197-1.712-46.122,0.375c-0.376,0.052-0.692,0.218-0.979,0.425
				c-0.339-0.061-0.671-0.131-1-0.195c0.017-13.833,0.04-27.667,0.063-41.501c0.301,0.062,0.615,0.09,0.932,0.126
				c1.501,0.17,3.008,0.208,4.518,0.247c2.889,0.073,6.676,0.607,8.576-2.026c1.126-1.562-0.416-3.2-1.916-3.435
				c-0.293-0.028-0.988-0.103-1.105-0.095c-0.628,0.044-1.233,0.196-1.844,0.33c-1.392,0.305-2.813,0.486-4.226,0.658
				c-1.392,0.169-2.787,0.288-4.173,0.498c-0.25,0.038-0.506,0.065-0.755,0.116c0.03-18.89,0.033-37.779,0.039-56.669
				c0.179,0.202,0.349,0.406,0.594,0.597c1.121,0.881,2.993-0.077,2.559-1.408c0.113-0.004,0.22-0.006,0.295-0.008
				c1.945-0.039,3.907,0.126,5.849,0.215c1.9,0.088,4.43,0.44,5.934-0.996c1.527-1.458,0.977-3.856-1.148-4.35
				c-1.832-0.425-3.948,0.053-5.814,0.146c-1.953,0.097-3.893,0.19-5.812,0.591c-1.032,0.216-1.867,0.706-2.452,1.325
				c0.001-6.789,0.02-13.578,0.014-20.367c-0.001-1.229,0.176-3.804,0.4-7.125c2.095,0.433,4.197,0.774,6.335,0.971
				c2.884,0.265,6.12,0.768,8.931-0.018c2.081-0.582,2.079-3.618,0-4.201c-2.161-0.606-4.32-0.301-6.545-0.298
				c-2.817,0.003-5.657-0.142-8.455-0.498c0.333-5.242,0.672-11.601,0.708-17.807c0.072,0.003,0.137,0.028,0.212,0.022
				c0.019-0.002,0.038-0.003,0.058-0.005c0.375-0.031,0.691-0.182,0.975-0.375c0.004,0.032,0.008,0.065,0.013,0.097
				c-1.304,0.616-0.637,0.319,0.705,0.456c1.414,0.143,2.886,0.031,4.302-0.01c2.727-0.08,6.26-0.026,8.483-0.304
				c3.778-0.472,3.839-5.512,0-5.923c-2.975-0.318-6.141,0.391-9.094,0.759c-1.635,0.204-3.947,0.333-5.684,1.084
				c-0.131-6.643-0.708-12.764-2.152-16.685c1.224-0.025,2.478-0.148,3.556-0.135c5.146,0.06,10.295,0.008,15.442,0.01
				C41.717,7.965,48.405,8.6,55.06,9.239c3.704,0.356,8.666,2.025,12.968,2.139C61.459,35.1,67.575,61.729,67.914,85.87z
				 M114.298,178.467c-1.321-4.5-2.518-9.045-3.742-13.58c2.956-0.739,6.019-2.153,7.838-4.615c1.16-1.568-1.103-3.746-2.666-2.666
				c-1.12,0.773-2.089,1.714-3.236,2.449c-0.905,0.58-1.889,1.012-2.869,1.447c-0.975-3.677-1.887-7.374-2.812-11.067
				c0.694-0.324,1.385-0.657,2.062-1.022c1.784-0.966,4.015-1.97,4.873-3.915c0.396-0.897-0.052-2.06-1.172-2.042
				c-1.795,0.028-3.014,1.017-4.458,1.973c-0.725,0.48-1.473,0.932-2.23,1.364c-0.926-3.76-1.76-7.543-2.647-11.314
				c1.726-0.25,3.373-0.805,4.908-1.804c1.337-0.87,0.503-3.284-1.134-2.689c-1.505,0.548-2.927,1.237-4.418,1.744
				c-0.934-4.009-1.769-8.024-2.675-12.038c1.2-0.288,2.402-0.569,3.604-0.854c1.95-0.463,3.9-0.641,5.607-1.755
				c1.187-0.775,0.667-2.454-0.694-2.564c-2.042-0.164-3.84,0.667-5.738,1.329c-1.118,0.391-2.264,0.711-3.399,1.055
				c-0.883-3.932-1.777-7.862-2.658-11.793c0.846-0.31,1.695-0.612,2.536-0.926c1.836-0.684,3.864-1.379,4.492-3.403
				c0.316-1.021-0.522-1.767-1.438-1.887c-1.829-0.24-3.63,1.194-5.189,1.992c-0.402,0.206-0.791,0.417-1.19,0.62
				c-0.605-2.73-1.215-5.46-1.794-8.189c-0.045-0.211-0.082-0.425-0.126-0.636c2.641-0.732,5.36-1.796,7.272-3.666
				c0.984-0.962-0.018-3.045-1.431-2.459c-2.226,0.923-4.232,2.338-6.348,3.551c-0.558-2.891-1.048-5.802-1.507-8.721
				c2.026-0.902,3.984-1.761,5.752-3.144c0.711-0.556-0.065-1.645-0.836-1.438c-1.896,0.508-3.574,1.407-5.262,2.35
				c-0.63-4.159-1.203-8.334-1.798-12.5c2.798-0.788,5.678-1.496,8.164-3.031c1.623-1.002,0.573-3.87-1.34-3.178
				c-2.459,0.89-4.876,1.884-7.316,2.829c-0.589-4.002-1.227-7.986-1.967-11.937c3.108-0.674,6.479-1.616,8.609-3.794
				c0.871-0.89,0.008-2.679-1.283-2.203c-1.501,0.553-2.84,1.439-4.272,2.144c-1.138,0.56-2.334,0.995-3.543,1.395
				c-0.84-4.193-1.835-8.335-3.042-12.41c1.531-0.427,3.061-0.854,4.592-1.28c1.665-0.464,3.294-0.775,4.594-1.974
				c1.069-0.987,0.147-2.486-1.081-2.609c-1.597-0.16-3.007,0.566-4.464,1.133c-1.523,0.594-3.047,1.187-4.57,1.78
				c-0.911-2.781-1.968-5.516-3.138-8.215c3.032-0.157,6.097-0.873,8.798-2.206c1.63-0.804,0.42-3.054-1.163-2.759
				c-3.023,0.563-5.789,1.861-8.905,2.015c-0.027,0.001-0.045,0.015-0.072,0.018c-1.3-2.705-2.728-5.37-4.387-7.962
				c0.114-0.046,0.222-0.054,0.339-0.123c17.367-10.222,42.461,2.204,58.82,9.457c21.132,9.369,33.25,30.568,39.207,51.85
				C184.799,121.028,155.478,163.82,114.298,178.467z"/>
		</g>
		<path d="M102.022,33.142c-0.059-0.129-0.102-0.267-0.162-0.395c-0.371-0.797-1.378-0.257-1.374,0.472
			c-1.724,0.65-1.971,3.616,0.15,4.027c0.166,0.032,0.322,0.086,0.487,0.12c3.882,23.167,7.096,46.405,11.104,69.555
			c2.062,11.907,1.691,39.05,11.867,47.599c0.244,1.428,1.289,2.749,2.957,2.675c25.92-1.148,27.846-41.484,27.776-60.291
			C154.723,68.043,132.935,33.989,102.022,33.142z M127.853,150.745c-4.541-16.382-7.775-32.603-10.73-49.45
			c-3.628-20.671-5.353-43.494-13.074-63.21c25.772,6.825,42.849,32.53,43.82,58.817
			C148.451,112.642,147.083,146.149,127.853,150.745z"/>
		<path d="M32.841,162.481c-1.764-1.309-5.286-0.352-7.365-0.253c-2.495,0.118-5.186,0.114-7.471,1.235
			c-0.779,0.383-1.093,1.39-0.889,2.184c0.132,0.513,0.187,0.936,0.502,1.38c0.497,0.701,1.269,0.509,1.614-0.016
			c0.498,0.012,1.008-0.04,1.546-0.037c1.571,0.007,3.133,0.146,4.697,0.285c2.599,0.229,6.65,1.226,8.22-1.521
			C34.392,164.519,33.89,163.26,32.841,162.481z"/>
		<path d="M31.428,104.58c-1.959-0.743-3.823,0.117-5.791,0.43c-2.015,0.319-4.093,0.345-6.127,0.436
			c-2.758,0.123-2.759,4.159,0,4.279c2.26,0.1,4.514,0.184,6.775,0.076c2.194-0.104,4.472-0.08,6.045-1.804
			C33.429,106.791,32.879,105.13,31.428,104.58z"/>
	</g>
</g>
</svg>