<?xml version="1.0" encoding="iso-8859-1"?>
<!-- Uploaded to: SVG Repo, www.svgrepo.com, Generator: SVG Repo Mixer Tools -->
<!DOCTYPE svg PUBLIC "-//W3C//DTD SVG 1.1//EN" "http://www.w3.org/Graphics/SVG/1.1/DTD/svg11.dtd">
<svg fill="#000000" version="1.1" id="Capa_1" xmlns="http://www.w3.org/2000/svg" xmlns:xlink="http://www.w3.org/1999/xlink" 
	 width="800px" height="800px" viewBox="0 0 192.688 192.688"
	 xml:space="preserve">
<g>
	<g>
		<path d="M90.472,1.029C39.567,9.149-2.326,50.439,3.774,103.98c4.326,37.974,39.086,93.528,82.396,87.702
			c49.461,8.675,99.842-40.304,103.108-88.358C193.067,47.568,149.06-8.315,90.472,1.029z M105.338,171.43
			c-0.61-0.277-1.285-0.438-2.01-0.334c-54.038,7.707-91.4-49.634-75.75-98.127c11.419-35.386,49.797-58.354,85.968-52.822
			c34.047,5.206,54.129,35.557,56.968,67.914C174.018,127.982,142.214,162.403,105.338,171.43z"/>
		<path d="M97.803,88.456c1.208-6.556,1.719-13.224,2.396-19.849c0.583-5.708,2.766-12.694,1.774-18.38
			c-0.674-3.867-5.518-3.381-7.363-0.962c-2.821,3.696-1.837,11.408-2.049,15.753c-0.375,7.676-0.774,15.35-1.138,23.025
			c-0.835,0.188-1.623,0.434-2.252,0.81c-1.173,0.7-1.787,1.734-2.025,2.838c-19.455,1.082-38.968,1.532-58.405,2.784
			c0,0.002,0.001,0.004,0.001,0.006c-3.451-0.259-4.522,6.016-0.001,6.338c17.796,1.269,38.371,3.115,56.56-0.096
			c0.142,0.408,0.324,0.805,0.594,1.178c2.727,3.756,7.324,2.996,10.716,0.645c3.298-2.285,5.935-5.392,5.34-9.628
			C101.636,90.661,99.923,89.233,97.803,88.456z"/>
		<path d="M58.965,67.421c-2.025-2.481-5.88-2.93-8.684-4.13c-2.675-1.144-5.049,2.55-2.346,4.015
			c2.804,1.52,6.299,3.628,9.559,3.668C59.455,70.997,60.052,68.753,58.965,67.421z"/>
		<path d="M74.653,49.683c-1.966-1.717-4.045-3.223-6.313-4.515c-2.397-1.365-5.295,2.095-3.031,3.929
			c1.818,1.474,3.509,3.112,5.194,4.735c1.595,1.537,3.287,3.588,5.559,4.06c1.738,0.359,3.139-1.039,2.777-2.778
			C78.367,52.848,76.315,51.135,74.653,49.683z"/>
		<path d="M98.521,26.932c-1.676,2.938-1.334,6.36-1.043,9.613c0.224,2.511,3.668,2.508,3.896,0
			c0.241-2.662,0.736-5.202,1.598-7.738C103.872,26.154,99.868,24.567,98.521,26.932z"/>
		<path d="M133.655,47.867c-3.605,1.44-4.805,5.168-6.115,8.538c-0.811,2.083,2.381,3.227,3.479,1.467
			c1.599-2.559,3.996-4.786,5.006-7.638C136.485,48.935,134.996,47.331,133.655,47.867z"/>
		<path d="M148.213,63.4c-1.275,1.471-2.123,2.196-4.069,2.568c-1.31,0.251-2.226,1.656-2.226,2.924c0,1.792,1.39,2.848,3.032,3.033
			c3.346,0.374,7.05-1.346,8.661-4.36C155.386,64.242,150.862,60.342,148.213,63.4z"/>
		<path d="M162.434,97.459c-3.935-0.977-8.004-0.319-11.957-1.283c-3.518-0.857-4.77,4.108-1.471,5.336
			c4.144,1.542,9.12,2.178,13.428,1.112C164.998,101.99,164.995,98.094,162.434,97.459z"/>
		<path d="M140.635,121.075c-1.912-0.488-3.271,2.382-1.382,3.277c1.662,0.789,3.056,1.79,4.372,3.072
			c1.421,1.384,2.396,2.722,4.425,3.162c1.421,0.309,2.599-0.865,2.287-2.286C149.472,124.349,144.206,121.986,140.635,121.075z"/>
		<path d="M136.365,145.672c-0.781-2.783-3.864-4.69-5.519-6.956c-1.053-1.443-3.837-0.636-3.115,1.313
			c0.97,2.619,2.646,5.212,4.254,7.491C133.496,149.659,137.138,148.422,136.365,145.672z"/>
		<path d="M97.079,153.686c-0.671-2.423-4.221-2.423-4.892,0c-0.538,1.939-0.075,4.185,0.063,6.164
			c0.151,2.174,0.13,4.446,0.568,6.584c0.37,1.802,3.259,1.802,3.628,0c0.439-2.139,0.417-4.41,0.569-6.584
			C97.153,157.869,97.616,155.625,97.079,153.686z"/>
		<path d="M71.004,141.963c-2.195,3.354-3.602,7.105-2.917,11.174c0.237,1.409,2.489,1.348,2.775,0
			c0.566-2.664,1.041-6.127,3.413-7.902C77.459,142.852,73.076,138.796,71.004,141.963z"/>
		<path d="M50.417,125.311c-2.182,2.582-3.827,5.525-5.865,8.211c-1.845,2.431,1.908,4.686,3.928,3.031
			c2.422-1.983,4.197-4.568,6.507-6.671C58.101,127.046,53.094,122.143,50.417,125.311z"/>
	</g>
</g>
</svg>