<?xml version="1.0" encoding="iso-8859-1"?>
<!-- Uploaded to: SVG Repo, www.svgrepo.com, Generator: SVG Repo Mixer Tools -->
<!DOCTYPE svg PUBLIC "-//W3C//DTD SVG 1.1//EN" "http://www.w3.org/Graphics/SVG/1.1/DTD/svg11.dtd">
<svg fill="#000000" version="1.1" id="Capa_1" xmlns="http://www.w3.org/2000/svg" xmlns:xlink="http://www.w3.org/1999/xlink" 
	 width="800px" height="800px" viewBox="0 0 182.279 182.28"
	 xml:space="preserve">
<g>
	<g>
		<path d="M94.736,44.147c0.08-0.645-0.211-1.309-1.071-1.543c-9.188-2.509-19.524,0.14-23.473,9.593
			c-3.339,7.997-1.135,19.407,5.937,24.817c11.92,9.117,28.677-4.066,28.5-17.234C104.541,53.154,100.223,47.072,94.736,44.147z"/>
		<path d="M52.42,48.929c0.04,0,0.04-0.062,0-0.062"/>
		<path d="M170.098,51.868c-12.352-10.15-32.728-6.04-47.142-3.574c-3.169-11.204-10.742-18.836-22.347-23.01
			c-0.758-0.272-2.232-0.652-4.07-1.009c-20.313-9.191-36.502,4.88-41.965,23.026c-7.54-4.827-22.232-1.587-29.477-0.355
			C9.736,49.559,2.604,56.525,2.345,72.025c-0.233,13.964-7.467,45.399,4.702,56.157c9.358,8.273,21.971,9.363,34.423,8.62
			c0.059,3.903,0.397,7.918,0.809,11.803c-3.998,0.182-8.198,0.461-11.63,2.067c-3.658,1.713-2.235,6.902,1.042,7.975
			c4.475,1.464,10.224,0.57,14.845,0.481c4.266-0.082,12.704,0.626,12.704-5.729c0-4.811-4.549-5.42-8.641-5.288
			c0.422-4.027,0.788-8.187,0.797-12.194c2.994-0.333,5.929-0.688,8.74-0.993c23.257-2.511,46.457-0.455,69.695,0.021
			c-0.244,0.434-0.446,0.917-0.545,1.502c-0.572,3.393-0.439,6.556,0.026,9.952c0.162,1.185,0.397,2.588,0.819,3.9
			c-3.438,0.829-6.838,1.814-10.062,3.251c-4.364,1.946-1.083,8.083,3.067,7.275c5.662-1.102,11.292-1.964,17.025-2.63
			c3.903-0.454,11.549-1.028,9.879-7.1c-1.481-5.389-7.576-3.57-11.638-2.625c-0.062-0.845-0.146-1.691-0.171-2.517
			c-0.071-2.309,0.044-4.628,0.659-6.859c0.457-1.656,0.069-3.046-0.75-4.095c5.609,0.002,11.221-0.084,16.838-0.439
			c16.367-1.038,20.966-7.611,24.187-23.243C182.925,93.078,186.306,65.189,170.098,51.868z M62.392,46.804
			c3.16-9.015,9.111-13.923,16.357-15.821c6.474,1.317,12.989,0.246,19.664,2.268c12.336,3.736,17.716,15.117,17.564,27.29
			c-0.29,23.132-25.846,33.648-44.379,22.873C58.988,76.083,58.082,59.1,62.392,46.804z M9.843,101.698
			c4.604,2.835,9.722,4.616,15.128,5.634c-5.081,0.096-10.122,0.416-15.04,1.217C9.76,106.323,9.771,104.016,9.843,101.698z
			 M165.075,123.08c-0.638-0.434-1.34-0.777-2.162-0.858c-22.604-2.212-46.107-0.256-68.847-0.561
			c-26.313-0.354-52.568-1.723-78.878-0.449c-0.41,0.021-0.78,0.131-1.124,0.283c-1.457-1.905-2.411-4.17-3.082-6.614
			c29.721,7.866,64.63,2.989,94.943,4.42c14.23,0.671,28.436,1.475,42.688,1.419c5.374-0.021,14.208,0.56,19.917-2.339
			C168.02,120.333,166.769,121.848,165.075,123.08z M170.776,108.478c-0.833-0.395-1.857-0.514-3.038-0.205
			c-20.789,5.41-44.695,1.537-65.895,0.668c-14.462-0.594-28.967-0.315-43.44-0.603c-2.767-0.055-5.578-0.169-8.403-0.296
			c7.589-0.607,15.036-1.659,21.76-2.392c33.299-3.626,66.935,2.798,99.912-2.073C171.383,105.272,171.084,106.924,170.776,108.478z
			"/>
	</g>
</g>
</svg>