<?xml version="1.0" encoding="iso-8859-1"?>
<!-- Uploaded to: SVG Repo, www.svgrepo.com, Generator: SVG Repo Mixer Tools -->
<!DOCTYPE svg PUBLIC "-//W3C//DTD SVG 1.1//EN" "http://www.w3.org/Graphics/SVG/1.1/DTD/svg11.dtd">
<svg fill="#000000" version="1.1" id="Capa_1" xmlns="http://www.w3.org/2000/svg" xmlns:xlink="http://www.w3.org/1999/xlink" 
	 width="800px" height="800px" viewBox="0 0 188.604 188.604"
	 xml:space="preserve">
<g>
	<g>
		<path d="M183.661,128.912c-8.893-6.914-18.046-13.375-27.478-19.464c3.38-3.815,6.78-7.605,10.365-11.179
			c2.883-2.874,1.677-8.379-2.465-9.335c-9.361-2.162-22.015-2.68-32.768-0.45c-3.325-0.559-6.66-1.205-10.043-2.051
			c-2.582-0.645-4.694,1.425-5.084,3.618c-0.295,0.458-0.522,0.977-0.56,1.619c-0.762,13.237,3.234,26.649,4.625,39.752
			c0.394,3.712,4.221,6.841,7.886,4.525c2.408-1.521,4.66-3.218,6.852-4.984c8.053,8.373,16.108,16.856,25.18,24.087
			c2.089,1.665,5.512,2.403,7.504,0c5.199-6.27,10.785-12.197,15.984-18.468C185.357,134.535,186.145,130.844,183.661,128.912z"/>
		<path d="M27.773,21.628c11.935-8.175,29.416-8.466,43.283-8.959C98,11.711,125.333,15.64,151.786,20.39
			c7.294,1.309,10.407-9.847,3.075-11.154C114.197,1.987,60.41-8.645,22.273,12.219c-6.729,3.681-11.145,9.066-14.03,15.3
			c-1.816,0.182-3.491,1.198-3.893,3.27c-1.061,5.465-1.149,10.21-0.557,14.439c-0.689,7.106-0.457,14.373,0.041,21.006
			c2.893,38.502,6.403,75.395,5.965,114.217c-0.028,2.529,1.763,4.85,4.194,5.509c18.43,4.994,37.048,1.76,55.71-0.327
			c24.896-2.783,50.886,0.106,75.669,2.821c2.878,0.315,5.39-2.673,5.352-5.353c-0.331-23.609,1.103-25.682-15.248-36.464
			c1.73-3.256-1.303-7.547-5.414-5.486c-5.992,3.002-11.326,6.88-16.817,10.605c-3.134-14.847-5.354-29.778-7.099-44.898
			c-0.899-7.801-1.614-15.624-2.367-23.44c-0.591-6.116,10.928-4.182,14.824-4.396c13.3-0.729,33.251-1.416,36.198-17.652
			c0.667-3.675-1.547-7.016-5.453-7.158C124.106,53.295,27.175,78.44,14.681,44.143C16.049,35.26,19.697,27.161,27.773,21.628z"/>
		<path d="M151.667,26.694c-0.483-2.174-2.773-3.848-4.969-3.783C137.335,23.189,23.04,9.169,24.973,41.928
			c0.994,16.839,20.684,18.679,33.477,17.473c30.551-2.879,61.341-10.569,91.637-15.402c1.338-0.213,1.92-1.092,1.983-2.083
			c0.743-0.885,1.198-2.01,1.152-3.251C153.03,33.416,152.81,31.843,151.667,26.694z"/>
	</g>
</g>
</svg>