<?xml version="1.0" encoding="iso-8859-1"?>
<!-- Uploaded to: SVG Repo, www.svgrepo.com, Generator: SVG Repo Mixer Tools -->
<!DOCTYPE svg PUBLIC "-//W3C//DTD SVG 1.1//EN" "http://www.w3.org/Graphics/SVG/1.1/DTD/svg11.dtd">
<svg fill="#000000" version="1.1" id="Capa_1" xmlns="http://www.w3.org/2000/svg" xmlns:xlink="http://www.w3.org/1999/xlink" 
	 width="800px" height="800px" viewBox="0 0 192.953 192.953"
	 xml:space="preserve">
<g>
	<g>
		<path d="M141.366,42.53c-6.231-0.561-12.565-0.533-18.924-0.46c-0.805-4.777-3.281-9.658-4.856-13.83
			c-3.2-8.479-6.695-16.841-9.849-25.337c-1.048-2.822-5.653-4.368-7.197-0.94c-3.653,8.113-9.207,15.213-14.256,22.483
			c-3.246,4.673-7.259,10.257-8.751,16.129c-8.786-0.146-17.571,0.05-26.28,0.734c-1.893,0.064-2.764,2.25-1.504,3.632h0.001
			c-1.5,4.602,2.592,8.189,5.989,11.181c3.831,3.373,8.388,7.384,13.117,10.384c-1.861,11.161-1.797,23.219-1.003,34.312
			c0.259,3.623,4.337,5.512,7.11,2.945c6.835-6.329,13.592-13.175,19.744-20.319c8.122,7.394,15.294,15.547,23.021,23.401
			c2.38,2.42,6.552,0.605,6.578-2.725c0.087-10.811,2.424-24.547-1.102-35.217c3.382-2.036,6.586-4.373,9.706-6.811
			c4.079-3.188,11.217-7.378,11.406-13.011c0.017-0.512-0.095-0.963-0.297-1.349C145.537,45.821,143.936,42.761,141.366,42.53z"/>
		<path d="M145.831,158.231c-0.102-0.386-0.274-0.728-0.494-1.027c0.417-6.747-9.24-11.953-14.03-15.313
			c-3.027-2.123-8.927-6.947-14.178-8.529c1.176-4.55,0.07-11.127-0.274-15.481c-0.435-5.474-1.853-11.679-5.657-15.864
			c-11.278-12.401-26.377-5.175-35.295,5.989c-1.005,1.258-0.821,2.275-0.177,2.935c-0.134,5.823-0.192,11.656-0.223,17.482
			c-0.008,1.55-0.122,3.359-0.152,5.21c-4.152,1.506-8.265,3.812-11.225,5.241c-6.185,2.989-13.931,6.721-18.141,12.375
			c-0.924,1.241-0.363,2.753,0.697,3.654c-1.338,9.807-1.375,19.633-1.427,29.572c-0.008,1.476,1.105,3.279,2.678,3.517
			c31.642,4.785,63.803,6.965,95.62,2.619c1.27-0.174,2.622-1.621,2.85-2.851C148.143,178.344,148.302,167.542,145.831,158.231z"/>
	</g>
</g>
</svg>